<?xml version="1.0" encoding="UTF-8" standalone="no"?>
<!-- Created with Inkscape (http://www.inkscape.org/) -->

<svg
   xmlns:dc="http://purl.org/dc/elements/1.1/"
   xmlns:cc="http://creativecommons.org/ns#"
   xmlns:rdf="http://www.w3.org/1999/02/22-rdf-syntax-ns#"
   xmlns:svg="http://www.w3.org/2000/svg"
   xmlns="http://www.w3.org/2000/svg"
   xmlns:xlink="http://www.w3.org/1999/xlink"
   xmlns:sodipodi="http://sodipodi.sourceforge.net/DTD/sodipodi-0.dtd"
   xmlns:inkscape="http://www.inkscape.org/namespaces/inkscape"
   width="200"
   height="200"
   viewBox="0 0 200 200"
   id="svg2"
   version="1.1"
   inkscape:version="0.91 r13725"
   sodipodi:docname="searcharchives.svg"
   inkscape:export-filename="searchgitrepo.png"
   inkscape:export-xdpi="67.5"
   inkscape:export-ydpi="67.5">
  <defs
     id="defs4">
    <linearGradient
       inkscape:collect="always"
       id="linearGradient4197">
      <stop
         style="stop-color:#424242;stop-opacity:1;"
         offset="0"
         id="stop4199" />
      <stop
         style="stop-color:#424242;stop-opacity:0;"
         offset="1"
         id="stop4201" />
    </linearGradient>
    <linearGradient
       inkscape:collect="always"
       xlink:href="#linearGradient4197"
       id="linearGradient4203"
       x1="70.331291"
       y1="1016.4865"
       x2="113.63196"
       y2="873.04486"
       gradientUnits="userSpaceOnUse" />
  </defs>
  <sodipodi:namedview
     id="base"
     pagecolor="#ffffff"
     bordercolor="#666666"
     borderopacity="1.0"
     inkscape:pageopacity="0.0"
     inkscape:pageshadow="2"
     inkscape:zoom="2.8"
     inkscape:cx="7.5461602"
     inkscape:cy="57.639186"
     inkscape:document-units="px"
     inkscape:current-layer="layer1"
     showgrid="false"
     units="px"
     inkscape:window-width="1855"
     inkscape:window-height="1056"
     inkscape:window-x="65"
     inkscape:window-y="24"
     inkscape:window-maximized="1" />
  <metadata
     id="metadata7">
    <rdf:RDF>
      <cc:Work
         rdf:about="">
        <dc:format>image/svg+xml</dc:format>
        <dc:type
           rdf:resource="http://purl.org/dc/dcmitype/StillImage" />
        <dc:title />
      </cc:Work>
    </rdf:RDF>
  </metadata>
  <g
     inkscape:label="Layer 1"
     inkscape:groupmode="layer"
     id="layer1"
     transform="translate(0,-852.36216)">
    <circle
       style="opacity:1;fill:#898989;fill-opacity:1;stroke:none;stroke-width:15;stroke-linecap:round;stroke-linejoin:round;stroke-miterlimit:4;stroke-dasharray:none;stroke-opacity:1"
       id="path4158"
       cx="100"
       cy="952.36218"
       r="100" />
    <path
       style="opacity:1;fill:url(#linearGradient4203);fill-opacity:1;stroke:none;stroke-width:15;stroke-linecap:round;stroke-linejoin:round;stroke-miterlimit:4;stroke-dasharray:none;stroke-opacity:1"
       id="path4160"
       sodipodi:type="arc"
       sodipodi:cx="100"
       sodipodi:cy="952.36218"
       sodipodi:rx="100"
       sodipodi:ry="100"
       sodipodi:start="5.6442437"
       sodipodi:end="2.5010363"
       d="M 180.27274,892.72757 A 100,100 0 0 1 159.69941,1032.5867 100,100 0 0 1 19.823662,1012.1263 L 100,952.36218 Z" />
    <path
       id="path4149"
       style="fill:#f03c2e;stroke:#000000;stroke-width:2.04703045;stroke-miterlimit:4;stroke-dasharray:none;stroke-opacity:0.94117647"
       d="m 156.75728,957.62055 -51.50467,51.49955 c -2.96479,2.9666 -7.775543,2.9666 -10.744312,0 L 83.814159,998.42471 97.380267,984.85888 c 3.153373,1.06455 6.769063,0.35012 9.281453,-2.16263 2.52753,-2.5285 3.23556,-6.17501 2.1438,-9.33907 l 13.07622,-13.07386 c 3.16429,1.09059 6.81257,0.38561 9.34012,-2.14524 3.53042,-3.52926 3.53042,-9.25041 0,-12.7825 -3.53301,-3.53229 -9.25333,-3.53229 -12.78789,0 -2.65527,2.65766 -3.31218,6.55943 -1.96573,9.83095 l -12.19606,12.1943 0,-32.08897 c 0.86002,-0.42622 1.6724,-0.99378 2.38954,-1.70889 3.53043,-3.52983 3.53043,-9.25031 0,-12.78555 -3.53045,-3.52866 -9.254882,-3.52866 -12.78274,0 -3.530433,3.53524 -3.530433,9.25572 0,12.78555 0.872591,0.87159 1.883065,1.53088 2.961192,1.97223 l 0,32.38572 c -1.078127,0.44136 -2.086164,1.09513 -2.961192,1.97262 -2.673885,2.67288 -3.31733,6.59768 -1.945725,9.88177 L 78.558696,993.17095 43.241821,957.85923 c -2.966265,-2.96906 -2.966265,-7.77961 0,-10.74611 L 94.749005,895.6135 c 2.965301,-2.96601 7.774525,-2.96601 10.744335,0 l 51.26394,51.26095 c 2.96722,2.96708 2.96722,7.77999 0,10.74609"
       inkscape:connector-curvature="0" />
  </g>
</svg>
